<svg aria-hidden="true" style="position: absolute; width: 0; height: 0; overflow: hidden;" version="1.1" xmlns="http://www.w3.org/2000/svg" xmlns:xlink="http://www.w3.org/1999/xlink">
<defs>
<symbol id="icon-scroll-down" viewBox="0 0 32 32">
      <path d="M16 32c8.837 0 16-7.163 16-16S24.837 0 16 0 0 7.163 0 16s7.163 16 16 16z"/>
      <path d="M16.547 17.081a.773.773 0 0 1-1.094 0l-3.537-3.544a.772.772 0 0 0-1.094 1.088l3.543 3.543c.419.418.997.677 1.636.677s1.217-.259 1.636-.677l3.544-3.543a.773.773 0 0 0-1.097-1.089l-3.535 3.543z"/>
    </symbol>
<symbol id="icon-twitter" viewBox="0 0 32 32">
<path stroke-linejoin="round" stroke-linecap="round" stroke-miterlimit="4" stroke-width="2.6667" d="M30.667 4c-1.277 0.901-2.691 1.589-4.187 2.040-0.803-0.923-1.87-1.578-3.057-1.875s-2.437-0.222-3.58 0.214c-1.143 0.436-2.125 1.213-2.812 2.226s-1.047 2.212-1.031 3.435v1.333c-2.343 0.061-4.665-0.459-6.759-1.513s-4.561-3.563-5.908-5.481c0 0-4.667 12.954 7.333 18.287-2.746 1.864-6.017 2.799-9.333 2.667 12 6.667 26.667 0 26.667-15.333-0.001-0.371-0.037-0.742-0.107-1.107 1.361-1.342 2.321-3.036 2.773-4.893z"></path>
</symbol>
<symbol id="icon-instagram" viewBox="0 0 32 32">
<path stroke-linejoin="round" stroke-linecap="round" stroke-miterlimit="4" stroke-width="2.6667" d="M22.667 2.667h-13.333c-3.682 0-6.667 2.985-6.667 6.667v13.333c0 3.682 2.985 6.667 6.667 6.667h13.333c3.682 0 6.667-2.985 6.667-6.667v-13.333c0-3.682-2.985-6.667-6.667-6.667z"></path>
<path stroke-linejoin="round" stroke-linecap="round" stroke-miterlimit="4" stroke-width="2.6667" d="M21.333 15.16c0.165 1.11-0.025 2.243-0.542 3.239s-1.334 1.803-2.336 2.307c-1.002 0.504-2.137 0.68-3.245 0.502s-2.131-0.701-2.924-1.494c-0.793-0.793-1.316-1.816-1.494-2.924s-0.003-2.243 0.502-3.245c0.504-1.002 1.312-1.819 2.308-2.336s2.129-0.706 3.239-0.542c1.132 0.168 2.18 0.695 2.989 1.504s1.337 1.857 1.504 2.989z"></path>
<path stroke-linejoin="round" stroke-linecap="round" stroke-miterlimit="4" stroke-width="2.6667" d="M23.333 8.667h0.013"></path>
</symbol>
<symbol id="icon-scroll-down-arrow" viewBox="0 0 32 32">
 <path d="M542.292 571.741a42.726 42.726 0 0 1-13.885 9.342c-5.199 2.164-10.775 3.281-16.407 3.281s-11.208-1.117-16.407-3.281a42.72 42.72 0 0 1-13.885-9.342l-195.415-195.84a42.665 42.665 0 0 0-46.702-9.339 42.676 42.676 0 0 0-13.885 9.339 42.665 42.665 0 0 0 0 60.16l195.84 195.84a127.998 127.998 0 0 0 90.453 37.432 127.986 127.986 0 0 0 90.452-37.432l195.845-195.84a42.676 42.676 0 0 0 12.372-29.866 42.59 42.59 0 0 0-3.17-16.38 42.678 42.678 0 0 0-9.202-13.913A42.671 42.671 0 0 0 768 363.282a42.661 42.661 0 0 0-30.292 12.62l-195.416 195.84z"/>
</symbol>
</defs>
</svg>
