<svg xmlns="http://www.w3.org/2000/svg" width="1024" height="1024">
  <path d="M542.292 571.741a42.726 42.726 0 0 1-13.885 9.342c-5.199 2.164-10.775 3.281-16.407 3.281s-11.208-1.117-16.407-3.281a42.72 42.72 0 0 1-13.885-9.342l-195.415-195.84a42.665 42.665 0 0 0-46.702-9.339 42.676 42.676 0 0 0-13.885 9.339 42.665 42.665 0 0 0 0 60.16l195.84 195.84a127.998 127.998 0 0 0 90.453 37.432 127.986 127.986 0 0 0 90.452-37.432l195.845-195.84a42.676 42.676 0 0 0 12.372-29.866 42.59 42.59 0 0 0-3.17-16.38 42.678 42.678 0 0 0-9.202-13.913A42.671 42.671 0 0 0 768 363.282a42.661 42.661 0 0 0-30.292 12.62l-195.416 195.84z"/>
</svg>
